<svg width="52" height="52" viewBox="0 0 52 52" fill="none" xmlns="http://www.w3.org/2000/svg">
<path d="M33.9657 11C31.0414 11 28.3114 11.8422 26 13.2925C23.6886 11.8422 20.9586 11 18.0343 11C9.7444 11 3 17.7444 3 26.0343C3 34.3242 9.7444 41.0686 18.0343 41.0686C20.9586 41.0686 23.6886 40.2263 26 38.7761C28.3115 40.2263 31.0414 41.0686 33.9657 41.0686C42.2556 41.0686 49 34.3242 49 26.0343C49 17.7444 42.2556 11 33.9657 11ZM18.0343 40.4487C10.0864 40.4487 3.61991 33.9821 3.61991 26.0343C3.61991 18.0864 10.0864 11.6199 18.0343 11.6199C20.7363 11.6199 23.2662 12.3688 25.43 13.6677C21.5074 16.3836 18.9314 20.9128 18.9314 26.0343C18.9314 31.1558 21.5075 35.685 25.43 38.4008C23.2662 39.6997 20.7363 40.4487 18.0343 40.4487ZM26 14.0287C29.8834 16.614 32.4487 21.0296 32.4487 26.0343C32.4487 31.0389 29.8834 35.4546 26 38.0398C22.1166 35.4546 19.5513 31.0389 19.5513 26.0343C19.5513 21.0296 22.1166 16.614 26 14.0287ZM33.9657 40.4487C31.2637 40.4487 28.7338 39.6997 26.57 38.4008C30.4925 35.685 33.0686 31.1558 33.0686 26.0343C33.0686 20.9128 30.4925 16.3836 26.57 13.6677C28.7338 12.3688 31.2637 11.6199 33.9657 11.6199C41.9136 11.6199 48.3801 18.0864 48.3801 26.0343C48.3801 33.9821 41.9136 40.4487 33.9657 40.4487Z" fill="#4C5B8C" stroke="#4C5B8C" stroke-width="0.5"/>
</svg>
