<svg width="52" height="52" viewBox="0 0 52 52" fill="none" xmlns="http://www.w3.org/2000/svg">
<path d="M47.5204 22.4219C46.5997 21.5012 45.408 21.0279 44.1993 20.9666C42.4332 14.5655 37.4342 9.56731 31.0334 7.80089C30.9722 6.5923 30.4991 5.40061 29.5784 4.47989C27.6061 2.5076 24.3957 2.5058 22.4216 4.47989C21.501 5.40045 21.0279 6.59196 20.9666 7.80039C14.5671 9.56551 9.56652 14.5704 7.801 20.9666C6.59264 21.0278 5.40084 21.5006 4.47956 22.4219C2.50726 24.3942 2.50637 27.6047 4.47956 29.5788C5.4005 30.4997 6.59196 30.9721 7.80016 31.0332C9.56551 37.4338 14.5699 42.4344 20.9666 44.1988C21.0277 45.4074 21.5006 46.5993 22.4216 47.5208C23.4082 48.5074 24.7039 48.9998 25.9995 48.9998C27.2961 48.9998 28.5918 48.5074 29.5784 47.5208C30.4994 46.5993 30.9723 45.4074 31.0334 44.1988C37.4369 42.4332 42.4334 37.4356 44.1987 31.0332C45.4078 30.972 46.5994 30.499 47.5204 29.5788C49.4936 27.6047 49.4927 24.3942 47.5204 22.4219ZM23.0721 5.13043C23.879 4.32355 24.9393 3.9201 25.9995 3.9201C27.0607 3.9201 28.121 4.32355 28.9279 5.13043C30.5417 6.74421 30.5417 9.37154 28.9279 10.9862C27.315 12.6 24.6868 12.6 23.0721 10.9862C21.4583 9.37154 21.4583 6.74421 23.0721 5.13043ZM5.1301 23.0724C6.74387 21.4578 9.3721 21.4596 10.9859 23.0724C12.5996 24.6862 12.5996 27.3136 10.9859 28.9282C9.3721 30.5411 6.74387 30.5429 5.1301 28.9282C3.51632 27.3136 3.51632 24.6862 5.1301 23.0724ZM28.9279 46.8702C27.315 48.4831 24.6868 48.4849 23.0721 46.8702C21.4583 45.2556 21.4583 42.6282 23.0721 41.0145C23.879 40.2076 24.9393 39.8041 25.9995 39.8041C27.0607 39.8041 28.121 40.2076 28.9279 41.0145C30.5417 42.6282 30.5417 45.2556 28.9279 46.8702ZM30.9921 43.2527C30.8476 42.1957 30.3889 41.1744 29.5784 40.3639C27.6061 38.3907 24.3957 38.3907 22.4216 40.3639C21.611 41.1745 21.1524 42.1958 21.0079 43.2527C15.0892 41.5452 10.4562 36.914 8.74638 30.9919C9.8039 30.8476 10.8254 30.389 11.6364 29.5788C13.6096 27.6047 13.6087 24.3942 11.6364 22.4219C10.8258 21.6113 9.80424 21.1525 8.74711 21.008C10.4557 15.0897 15.0868 10.4563 21.0078 8.74666C21.1522 9.80373 21.6107 10.8255 22.4216 11.6368C23.4082 12.6233 24.7039 13.1157 25.9995 13.1157C27.2961 13.1157 28.5918 12.6233 29.5784 11.6368C30.3892 10.8256 30.8477 9.80407 30.9921 8.74711C36.9153 10.456 41.5436 15.0844 43.2531 21.0078C42.1962 21.1522 41.1747 21.6108 40.3636 22.4219C38.3913 24.3942 38.3904 27.6047 40.3636 29.5788C41.1745 30.3896 42.1958 30.8477 43.2527 30.9919C41.5433 36.9167 36.9169 41.5438 30.9921 43.2527ZM41.0141 28.9282C39.4004 27.3136 39.4004 24.6862 41.0141 23.0724C42.6279 21.4578 45.2561 21.4596 46.8699 23.0724C48.4837 24.6862 48.4837 27.3136 46.8699 28.9282C45.2561 30.5411 42.6279 30.5429 41.0141 28.9282Z" fill="#4C5B8C" stroke="#4C5B8C" stroke-width="0.5"/>
</svg>
