<svg width="52" height="52" viewBox="0 0 52 52" fill="none" xmlns="http://www.w3.org/2000/svg">
<path d="M42.5927 10.0691L42.601 10.0609L41.9503 9.41022L41.9424 9.41814C37.6366 5.27737 31.9985 2.99609 26.0071 2.99609C19.8617 2.99609 14.0838 5.39027 9.73856 9.73555C5.39328 14.0808 3 19.8587 3 26.0041C3 31.9955 5.28038 37.6336 9.42115 41.9394L9.41323 41.9473L10.0639 42.598L10.0722 42.5897C14.5137 46.8595 20.2585 49.0004 26.0071 49.0004C31.8982 49.0004 37.7901 46.7581 42.2756 42.2726C51.1366 33.4108 51.2381 19.0637 42.5927 10.0691ZM41.9338 41.2801L26.6578 26.0041L41.9338 10.7281C50.1116 19.2524 50.1116 32.7549 41.9338 41.2801ZM3.92028 26.0041C3.92028 20.104 6.2174 14.5581 10.3892 10.3862C14.5611 6.21439 20.107 3.91638 26.0071 3.91638C31.7523 3.91638 37.1595 6.10138 41.2917 10.0688L10.0718 41.2887C6.1045 37.1565 3.92028 31.7493 3.92028 26.0041ZM10.731 41.9308L26.0071 26.6548L41.2831 41.9308C32.7578 50.1077 19.2545 50.1078 10.731 41.9308Z" fill="#4C5B8C" stroke="#4C5B8C" stroke-width="0.5"/>
</svg>
