<svg width="52" height="52" viewBox="0 0 52 52" fill="none" xmlns="http://www.w3.org/2000/svg">
<path d="M45.4472 23.1448C44.1181 21.8157 41.9557 21.817 40.6279 23.1448C40.0505 23.7225 39.7396 24.4586 39.6641 25.214H12.3342C12.2587 24.4586 11.9478 23.7225 11.3704 23.1448C10.0413 21.8157 7.87883 21.817 6.55104 23.1448C5.22257 24.4739 5.22257 26.6357 6.55104 27.9641C7.21527 28.6284 8.08782 28.9605 8.96038 28.9605C9.83359 28.9605 10.7061 28.6284 11.3704 27.9641C11.9477 27.3868 12.2586 26.6509 12.3341 25.8956H39.6642C39.7397 26.6509 40.0505 27.3868 40.6279 27.9641C41.2921 28.6284 42.1647 28.9605 43.0372 28.9605C43.9104 28.9605 44.783 28.6284 45.4472 27.9641C46.7757 26.6357 46.7757 24.4739 45.4472 23.1448ZM10.8885 27.4823C9.85822 28.5119 8.0632 28.5126 7.0329 27.4823C5.97 26.4194 5.97 24.6902 7.0329 23.6267C7.56469 23.0955 8.2622 22.83 8.96104 22.83C9.65855 22.83 10.3567 23.0955 10.8885 23.6267C11.9514 24.6902 11.9514 26.4194 10.8885 27.4823ZM44.9654 27.4823C43.9351 28.5119 42.14 28.5126 41.1098 27.4823C40.0468 26.4194 40.0468 24.6902 41.1098 23.6267C41.6415 23.0955 42.339 22.83 43.0379 22.83C43.7354 22.83 44.4336 23.0955 44.9654 23.6267C46.0283 24.6902 46.0283 26.4194 44.9654 27.4823Z" fill="#4C5B8C" stroke="#4C5B8C" stroke-width="0.8"/>
</svg>
