<svg width="40" height="40" viewBox="0 0 40 40" fill="none" xmlns="http://www.w3.org/2000/svg">
<rect width="40" height="40" fill="white"/>
<path d="M36.5938 14.9414L20.7448 20.6311C20.6014 20.6829 20.4445 20.6829 20.3011 20.6311L6.82067 15.7961V27.2669C7.1194 27.3948 7.37393 27.6078 7.55259 27.8792C7.73125 28.1507 7.82616 28.4687 7.8255 28.7937V31.3319C7.8255 31.4686 7.77119 31.5997 7.67452 31.6964C7.57785 31.793 7.44674 31.8474 7.31003 31.8474H5.03937C4.90266 31.8474 4.77155 31.793 4.67488 31.6964C4.57821 31.5997 4.5239 31.4686 4.5239 31.3319V28.7937C4.52381 28.4705 4.61745 28.1543 4.79349 27.8833C4.96953 27.6123 5.2204 27.3982 5.51569 27.2669V15.3459L4.43908 14.9609C4.31087 14.9166 4.19968 14.8333 4.12099 14.7228C4.04229 14.6123 4 14.48 4 14.3443C4 14.2087 4.04229 14.0764 4.12099 13.9658C4.19968 13.8553 4.31087 13.7721 4.43908 13.7277L20.288 8.03802C20.4314 7.98619 20.5884 7.98619 20.7317 8.03802L36.5807 13.7277C36.7029 13.7745 36.8083 13.857 36.8831 13.9644C36.9578 14.0718 36.9986 14.1992 37 14.3301C37.0014 14.461 36.9634 14.5892 36.8909 14.6983C36.8185 14.8073 36.715 14.892 36.5938 14.9414ZM20.7317 22.0209C20.5963 22.0666 20.4496 22.0666 20.3141 22.0209L9.28708 18.0537V26.9667C12.51 29.4301 16.4668 30.7398 20.5229 30.6859C24.5836 30.7428 28.5454 29.4329 31.7719 26.9667V18.0537L20.7448 22.0209H20.7317Z" fill="black"/>
</svg>
