<svg width="40" height="40" viewBox="0 0 40 40" fill="none" xmlns="http://www.w3.org/2000/svg">
<g opacity="0.5">
<rect width="40" height="40" fill="white"/>
<path d="M20.5 6C13.0551 6 7 12.0551 7 19.5C7 26.9449 13.0551 33 20.5 33C27.9449 33 34 26.9449 34 19.5C34 12.0551 27.9449 6 20.5 6ZM29.383 21.687C29.383 21.8966 29.2143 22.0614 29.0086 22.0614H23.0615V28.0085C23.0615 28.2142 22.8967 28.3829 22.6871 28.3829H18.3127C18.1031 28.3829 17.9383 28.2142 17.9383 28.0085V22.0614H11.9912C11.7856 22.0614 11.6168 21.8966 11.6168 21.687V17.3127C11.6168 17.103 11.7855 16.9382 11.9912 16.9382H17.9383V10.9912C17.9383 10.7855 18.1031 10.6167 18.3127 10.6167H22.6871C22.8967 10.6167 23.0615 10.7855 23.0615 10.9912V16.9382H29.0086C29.2142 16.9382 29.383 17.103 29.383 17.3127V21.687Z" fill="black"/>
</g>
</svg>
