<svg width="40" height="40" viewBox="0 0 40 40" fill="none" xmlns="http://www.w3.org/2000/svg">
<g opacity="0.5">
<rect width="40" height="40" fill="white"/>
<path d="M17.404 22.9276C13.5451 27.2164 9.52959 32.4437 11.533 33.7259C11.7467 33.8596 11.9823 33.9238 12.2413 33.9238C14.1788 33.9238 17.284 30.3508 20 26.6254C19.0079 25.2897 18.1079 23.9842 17.3996 22.9238L17.404 22.9276Z" fill="black"/>
<path d="M22.2975 16.7996C21.8195 17.3066 20.9975 18.1904 20 19.3028C20.7121 20.001 21.6068 20.9056 22.5758 21.9238C23.5034 20.3806 24.2269 19.1006 24.6179 18.4024C24.8005 18.4522 24.9903 18.4869 25.1801 18.509C27.0695 18.7542 29.2385 17.7679 30.9383 15.4516C33.2401 12.3167 33.8095 7.93359 31.6432 6.43595C29.4799 4.93979 25.3999 6.89726 23.1024 10.0348C21.4043 12.3539 21.1517 14.6661 22.0108 16.3187C22.0978 16.485 22.1891 16.6457 22.299 16.7981L22.2975 16.7996Z" fill="black"/>
<path d="M9.6821 17.3428C9.89726 17.6276 10.1192 17.8918 10.3438 18.1394C12.2384 20.2281 14.2681 20.7248 16.0491 20.1373C16.2155 20.0809 16.3779 20.0176 16.5376 19.9433C17.3834 21.4829 24.3322 33.9238 27.7476 33.9238C28.025 33.9238 28.278 33.8426 28.5027 33.6665C31.5136 31.3247 19.9245 19.6652 18.5942 18.3401C18.7052 18.2025 18.8094 18.058 18.9055 17.9108C19.9312 16.3147 19.9867 14.1915 18.4995 11.7893C18.3222 11.5045 18.1287 11.2155 17.9136 10.9335L14.4534 6.33645C14.107 5.87552 13.4561 5.78746 12.9987 6.1397C12.5453 6.49193 12.4587 7.15375 12.8052 7.6188L15.6361 11.3807C15.9825 11.8416 15.9 12.5048 15.4426 12.8598C14.9893 13.212 14.337 13.1281 13.9879 12.663L11.1569 8.90115C10.8105 8.44022 10.1596 8.35216 9.70224 8.7044C9.24891 9.05663 9.16231 9.71845 9.50874 10.1835L12.3397 13.9454C12.6861 14.4063 12.6036 15.0695 12.1462 15.4245C11.6928 15.7767 11.0406 15.6928 10.6915 15.2277L7.86052 11.4659C7.5141 11.0049 6.8632 10.9169 6.40582 11.2691C5.95249 11.6255 5.86588 12.2831 6.21231 12.7482L9.6725 17.3452L9.6821 17.3428Z" fill="black"/>
</g>
</svg>
