<svg width="40" height="40" viewBox="0 0 40 40" fill="none" xmlns="http://www.w3.org/2000/svg">
<g opacity="0.5">
<rect width="40" height="40" fill="white"/>
<path d="M19 30.7811H20.6669V31.7384H19V33.2881H20.6669V34.9238H21.6443V33.2881H32.3557V34.9238H33.3331V33.2881H35V31.7384H33.3331V30.7811H35V28.9238H19.0002L19 30.7811ZM21.6443 30.7811H32.3557V31.7384H21.6443V30.7811Z" fill="black"/>
<path d="M19 26.9238H35V28.9238H19V26.9238Z" fill="black"/>
<path d="M28 17.0598C28 14.3987 26.0997 12.1672 23.5288 11.5299C22.9187 8.34211 20.0056 5.92383 16.5 5.92383C12.9958 5.92383 10.0813 8.34051 9.47113 11.5299C6.90047 12.169 5 14.3989 5 17.0598C5 20.2188 7.67367 22.7798 10.9719 22.7798C11.0005 22.7798 11.029 22.7767 11.0575 22.7752V23.1547C11.0575 24.9414 12.5695 26.3881 14.4349 26.3896H14.7788V34.9238H18.2196V21.4667C19.2529 22.2864 20.5795 22.7797 22.0265 22.7797C25.3262 22.7797 28 20.2189 28 17.0598ZM14.7789 24.9715H14.435C13.9088 24.9715 13.4397 24.7696 13.0926 24.4387C12.7486 24.1078 12.5378 23.6584 12.5363 23.1529V22.5731C13.3683 22.356 14.1322 21.978 14.7773 21.4649L14.7789 24.9715Z" fill="black"/>
</g>
</svg>
