<svg width="40" height="40" viewBox="0 0 40 40" fill="none" xmlns="http://www.w3.org/2000/svg">
<g opacity="0.5">
<rect width="40" height="40" fill="white"/>
<path d="M31.1126 33.8937L30.244 33.0357C30.2183 32.994 30.182 32.9527 30.1463 32.917C28.931 31.7277 27.7263 30.5643 26.5166 29.3907H27.6543C29.096 29.3907 30.332 28.264 30.332 26.837V8.91367C30.332 8.18467 29.929 7.59 29.453 7.21267C28.972 6.83 28.4183 6.60233 27.8913 6.40067C25.381 5.46 22.836 5 20.274 5H20.189C17.6196 5 15.0343 5.47567 12.4393 6.38533C12.4187 6.39067 12.393 6.39567 12.372 6.401C12.3463 6.41133 12.326 6.41667 12.3047 6.42733H12.295C11.7773 6.61333 11.2453 6.83533 10.7853 7.20267C10.3097 7.58533 9.91665 8.19033 9.91665 8.914V26.8373C9.91665 28.264 11.1527 29.391 12.5947 29.391H13.6187L10.072 32.9787C10.0203 33.0303 9.97898 33.0873 9.94298 33.1387L9.19265 33.8937C8.93432 34.1467 8.93432 34.561 9.19265 34.814C9.31732 34.9377 9.48265 35 9.64798 35C9.81298 35 9.97865 34.9377 10.108 34.814L10.816 34.1053H29.484L30.1923 34.814C30.3163 34.9377 30.4813 35 30.6467 35C30.818 35 30.983 34.9377 31.1123 34.814C31.3606 34.561 31.3606 34.1467 31.1126 33.8937ZM25.41 26.1807C24.3193 26.1807 23.4247 25.286 23.4247 24.1953C23.4247 23.11 24.3193 22.2107 25.41 22.2107C26.5006 22.2107 27.3953 23.11 27.3953 24.1953C27.3953 25.286 26.501 26.1807 25.41 26.1807ZM20.685 11.8087H29.0033V18.436H20.685V11.8087ZM24.614 29.3903L25.596 30.342H14.538L15.484 29.3903H24.614ZM11.24 11.8087H19.361V18.436H11.24V11.8087ZM12.8223 24.1903C12.8223 23.0997 13.7217 22.1997 14.807 22.1997C15.8977 22.1997 16.7973 23.0997 16.7973 24.1903C16.7973 25.2757 15.898 26.1697 14.807 26.1697C13.7217 26.1697 12.8223 25.2757 12.8223 24.1903ZM12.1293 32.7823L13.2353 31.665H26.961L28.1086 32.7823H12.1293Z" fill="black"/>
</g>
</svg>
