<svg width="23" height="26" viewBox="0 0 23 26" fill="none" xmlns="http://www.w3.org/2000/svg">
<path d="M11.5 0C14.55 0 17.4752 1.22238 19.6318 3.39844C21.7885 5.57451 23 8.52608 23 11.6035C23 15.5667 20.8581 18.8106 18.6016 21.1377C17.474 22.2875 16.2438 23.3307 14.9268 24.2529L14.3828 24.627L14.127 24.7979L13.6455 25.1074L13.2158 25.3721L12.6846 25.6836C12.3236 25.8909 11.9153 26 11.5 26C11.0847 26 10.6764 25.8909 10.3154 25.6836L9.78418 25.3721L9.11914 24.959L8.87402 24.7979L8.35059 24.4463C6.92973 23.4759 5.60598 22.3675 4.39844 21.1377C2.14189 18.808 6.95745e-06 15.5667 0 11.6035C0 8.52608 1.2115 5.57451 3.36816 3.39844C5.52483 1.22238 8.45002 1.13981e-06 11.5 0ZM11.6191 5.37793C11.5453 5.35127 11.4644 5.35124 11.3906 5.37793L3.22656 8.30859C3.16052 8.33145 3.10304 8.37471 3.0625 8.43164C3.02208 8.48846 3.00006 8.55625 3 8.62598C3 8.69587 3.02196 8.76436 3.0625 8.82129C3.10304 8.87817 3.16055 8.92149 3.22656 8.94434L3.78125 9.14258V15.2832C3.62928 15.3508 3.49985 15.4612 3.40918 15.6006C3.31849 15.7402 3.26948 15.9038 3.26953 16.0703V17.3779C3.26966 17.4482 3.29797 17.5157 3.34766 17.5654C3.39738 17.6151 3.46488 17.6425 3.53516 17.6426H4.70508C4.77537 17.6426 4.84281 17.6151 4.89258 17.5654C4.94227 17.5157 4.97058 17.4482 4.9707 17.3779V16.0703C4.97104 15.9029 4.92211 15.7385 4.83008 15.5986C4.73805 15.4589 4.60696 15.3491 4.45312 15.2832V9.37402L11.3975 11.8652C11.4712 11.8919 11.5522 11.8919 11.626 11.8652L19.791 8.93359C19.8532 8.90816 19.9061 8.86455 19.9434 8.80859C19.9806 8.75249 20.0007 8.6865 20 8.61914C19.9993 8.55172 19.978 8.486 19.9395 8.43066C19.901 8.3754 19.8471 8.33269 19.7842 8.30859L11.6191 5.37793ZM11.626 12.5811H11.6191C11.5495 12.6045 11.474 12.6046 11.4043 12.5811L5.72363 10.5371V15.1289C7.38389 16.3978 9.42225 17.0727 11.5117 17.0449C13.6035 17.0742 15.6445 16.3993 17.3066 15.1289V10.5371L11.626 12.5811Z" fill="#E94B3E"/>
</svg>
