<svg width="18" height="18" viewBox="0 0 18 18" fill="none" xmlns="http://www.w3.org/2000/svg">
<path fill-rule="evenodd" clip-rule="evenodd" d="M5.22675 10.8517C5.279 10.7994 5.34107 10.7578 5.40941 10.7294C5.47775 10.7011 5.55101 10.6865 5.625 10.6865C5.69899 10.6865 5.77225 10.7011 5.84059 10.7294C5.90892 10.7578 5.971 10.7994 6.02325 10.8517L9 13.8296L11.9767 10.8517C12.0824 10.7461 12.2256 10.6868 12.375 10.6868C12.5244 10.6868 12.6676 10.7461 12.7732 10.8517C12.8789 10.9574 12.9382 11.1006 12.9382 11.25C12.9382 11.3994 12.8789 11.5426 12.7732 11.6482L9.39825 15.0232C9.346 15.0756 9.28392 15.1172 9.21559 15.1455C9.14725 15.1739 9.07399 15.1885 9 15.1885C8.92601 15.1885 8.85275 15.1739 8.78441 15.1455C8.71607 15.1172 8.654 15.0756 8.60175 15.0232L5.22675 11.6482C5.17436 11.596 5.1328 11.5339 5.10445 11.4656C5.07609 11.3972 5.06149 11.324 5.06149 11.25C5.06149 11.176 5.07609 11.1027 5.10445 11.0344C5.1328 10.9661 5.17436 10.904 5.22675 10.8517Z" fill="white"/>
<path fill-rule="evenodd" clip-rule="evenodd" d="M9 2.8125C9.14918 2.8125 9.29226 2.87176 9.39775 2.97725C9.50324 3.08274 9.5625 3.22582 9.5625 3.375V13.5C9.5625 13.6492 9.50324 13.7923 9.39775 13.8977C9.29226 14.0032 9.14918 14.0625 9 14.0625C8.85082 14.0625 8.70774 14.0032 8.60225 13.8977C8.49676 13.7923 8.4375 13.6492 8.4375 13.5V3.375C8.4375 3.22582 8.49676 3.08274 8.60225 2.97725C8.70774 2.87176 8.85082 2.8125 9 2.8125Z" fill="white"/>
</svg>
