<svg width="172" height="39" viewBox="0 0 172 39" fill="none" xmlns="http://www.w3.org/2000/svg">
<path d="M49.0364 27.887H60.3891V24.7783H52.4982V10.2631H49.0364V27.887Z" fill="#FF5722"/>
<path d="M67.2113 28.2541C68.5859 28.2541 69.795 27.9604 70.8386 27.3729C71.8907 26.7773 72.7095 25.9573 73.295 24.913C73.8889 23.8604 74.1859 22.6488 74.1859 21.2781C74.1859 19.9154 73.8931 18.712 73.3077 17.6676C72.7222 16.6151 71.9034 15.7909 70.8513 15.1953C69.8077 14.5997 68.5944 14.3019 67.2113 14.3019C65.8537 14.3019 64.6531 14.5957 63.6095 15.1831C62.5659 15.7706 61.7471 16.5905 61.1531 17.6431C60.5592 18.6874 60.2622 19.8991 60.2622 21.2781C60.2622 22.6406 60.5507 23.8482 61.1277 24.9007C61.7131 25.9451 62.5277 26.7651 63.5713 27.3607C64.615 27.9563 65.8283 28.2541 67.2113 28.2541ZM67.2113 25.1455C66.1337 25.1455 65.315 24.7987 64.755 24.1052C64.2034 23.4035 63.9277 22.4611 63.9277 21.2781C63.9277 20.1276 64.1907 19.1974 64.7168 18.4875C65.2513 17.7696 66.0828 17.4105 67.2113 17.4105C68.3059 17.4105 69.1289 17.7614 69.6804 18.4631C70.2404 19.1648 70.5204 20.1031 70.5204 21.2781C70.5204 22.4122 70.2447 23.3423 69.6931 24.0685C69.1501 24.7864 68.3228 25.1455 67.2113 25.1455Z" fill="#FF5722"/>
<path d="M81.0319 28.2541C81.6768 28.2541 82.2707 28.1807 82.8138 28.0338C83.3653 27.887 83.8659 27.6789 84.3156 27.4096V28.7437C84.3326 29.2333 84.201 29.6412 83.921 29.9675C83.6495 30.3021 83.2847 30.551 82.8265 30.7142C82.3683 30.8855 81.8804 30.9712 81.3629 30.9712C80.8792 30.9712 80.4295 30.8692 80.0138 30.6652C79.6065 30.4612 79.2925 30.1634 79.0719 29.7718L75.8647 31.2649C76.3907 32.1216 77.1416 32.8111 78.1174 33.3332C79.0932 33.8636 80.1665 34.1288 81.3374 34.1288C82.3471 34.1288 83.2847 33.9982 84.1501 33.7371C85.0156 33.4842 85.7453 33.0967 86.3392 32.5744C86.9416 32.0522 87.3532 31.3873 87.5738 30.5795C87.6501 30.2939 87.701 30.0043 87.7265 29.7105C87.7604 29.425 87.7774 29.119 87.7774 28.7926V14.669H84.7483V15.4034C84.2816 15.0525 83.7513 14.7833 83.1574 14.5957C82.5719 14.3998 81.9229 14.3019 81.2101 14.3019C79.895 14.3019 78.7495 14.6038 77.7738 15.2075C76.798 15.8113 76.0386 16.6395 75.4956 17.6921C74.961 18.7364 74.6938 19.9318 74.6938 21.2781C74.6938 22.5998 74.9568 23.7869 75.4829 24.8395C76.0174 25.892 76.7598 26.7243 77.7101 27.3363C78.6604 27.9481 79.7677 28.2541 81.0319 28.2541ZM81.5919 25.2923C80.8453 25.2923 80.2344 25.1128 79.7592 24.7538C79.2841 24.3949 78.9319 23.9135 78.7029 23.3097C78.4738 22.6977 78.3592 22.0205 78.3592 21.2781C78.3592 20.5437 78.478 19.8747 78.7156 19.2709C78.9532 18.6589 79.318 18.1735 79.8101 17.8144C80.3107 17.4472 80.9471 17.2637 81.7192 17.2637C82.8053 17.2637 83.5816 17.635 84.0483 18.3774C84.515 19.1117 84.7483 20.0786 84.7483 21.2781C84.7483 22.4774 84.5107 23.4483 84.0356 24.1908C83.5689 24.9252 82.7544 25.2923 81.5919 25.2923Z" fill="#FF5722"/>
<path d="M95.9998 28.2541C97.3744 28.2541 98.5835 27.9604 99.6271 27.3729C100.679 26.7773 101.498 25.9573 102.083 24.913C102.677 23.8604 102.974 22.6488 102.974 21.2781C102.974 19.9154 102.682 18.712 102.096 17.6676C101.511 16.6151 100.692 15.7909 99.6398 15.1953C98.5962 14.5997 97.3828 14.3019 95.9998 14.3019C94.6422 14.3019 93.4416 14.5957 92.398 15.1831C91.3544 15.7706 90.5356 16.5905 89.9416 17.6431C89.3477 18.6874 89.0507 19.8991 89.0507 21.2781C89.0507 22.6406 89.3392 23.8482 89.9162 24.9007C90.5016 25.9451 91.3162 26.7651 92.3598 27.3607C93.4035 27.9563 94.6168 28.2541 95.9998 28.2541ZM95.9998 25.1455C94.9222 25.1455 94.1034 24.7987 93.5434 24.1052C92.9919 23.4035 92.7162 22.4611 92.7162 21.2781C92.7162 20.1276 92.9792 19.1974 93.5053 18.4875C94.0398 17.7696 94.8713 17.4105 95.9998 17.4105C97.0944 17.4105 97.9174 17.7614 98.4689 18.4631C99.0289 19.1648 99.3089 20.1031 99.3089 21.2781C99.3089 22.4122 99.0331 23.3423 98.4816 24.0685C97.9386 24.7864 97.1113 25.1455 95.9998 25.1455Z" fill="#FF5722"/>
<path d="M104.5 12.8331H107.962V9.89587H104.5V12.8331ZM104.5 27.8869H107.962V14.669H104.5V27.8869Z" fill="#FF5722"/>
<path d="M110.225 33.7616H113.712V27.4096C114.162 27.6789 114.658 27.887 115.201 28.0338C115.753 28.1807 116.351 28.2541 116.996 28.2541C118.26 28.2541 119.368 27.9481 120.318 27.3363C121.268 26.7243 122.006 25.892 122.532 24.8395C123.067 23.7869 123.334 22.5998 123.334 21.2781C123.334 19.9318 123.063 18.7364 122.52 17.6921C121.985 16.6395 121.23 15.8113 120.254 15.2075C119.278 14.6038 118.133 14.3019 116.818 14.3019C116.105 14.3019 115.452 14.3998 114.858 14.5957C114.272 14.7833 113.746 15.0525 113.28 15.4034V14.669H110.225V33.7616ZM116.436 25.2923C115.282 25.2923 114.468 24.9252 113.992 24.1908C113.517 23.4483 113.28 22.4774 113.28 21.2781C113.28 20.0786 113.513 19.1117 113.98 18.3774C114.455 17.635 115.231 17.2637 116.309 17.2637C117.081 17.2637 117.713 17.4472 118.205 17.8144C118.706 18.1735 119.075 18.6589 119.312 19.2709C119.55 19.8747 119.669 20.5437 119.669 21.2781C119.669 22.0205 119.554 22.6977 119.325 23.3097C119.096 23.9135 118.744 24.3949 118.269 24.7538C117.794 25.1128 117.183 25.2923 116.436 25.2923Z" fill="#FF5722"/>
<path d="M129.606 28.2541C131.404 28.2541 132.813 27.8666 133.831 27.0914C134.849 26.3163 135.358 25.2516 135.358 23.8971C135.358 22.8691 135.027 22.0573 134.366 21.4616C133.712 20.866 132.601 20.3723 131.031 19.9807C129.962 19.7196 129.164 19.5074 128.638 19.3442C128.121 19.1811 127.777 19.022 127.607 18.867C127.446 18.712 127.366 18.5202 127.366 18.2917C127.366 17.9082 127.556 17.6146 127.938 17.4105C128.329 17.2066 128.842 17.125 129.478 17.1658C130.827 17.2637 131.566 17.8185 131.693 18.8302L135.231 18.2183C135.053 17.0189 134.442 16.0684 133.398 15.3667C132.355 14.6568 131.023 14.3019 129.402 14.3019C127.739 14.3019 126.411 14.6772 125.418 15.4278C124.426 16.1785 123.929 17.1902 123.929 18.4631C123.929 19.4748 124.273 20.2744 124.96 20.8619C125.647 21.4412 126.831 21.9389 128.511 22.3551C129.504 22.608 130.233 22.8119 130.7 22.967C131.175 23.122 131.481 23.2811 131.616 23.4443C131.752 23.5993 131.82 23.8074 131.82 24.0685C131.82 24.4846 131.65 24.811 131.311 25.0476C130.972 25.276 130.488 25.3902 129.86 25.3902C129.096 25.3902 128.464 25.2148 127.964 24.8639C127.472 24.5131 127.153 24.0277 127.009 23.4076L123.471 23.9216C123.7 25.3005 124.345 26.3694 125.406 27.1282C126.475 27.8788 127.875 28.2541 129.606 28.2541Z" fill="#FF5722"/>
<path d="M141.744 28.2787C142.737 28.2787 143.602 28.1195 144.341 27.8013C145.079 27.4831 145.698 27.0589 146.199 26.5285V27.887H149.253V14.6691H145.766V21.376C145.766 22.1919 145.668 22.8527 145.473 23.3587C145.287 23.8564 145.045 24.2358 144.748 24.4968C144.451 24.7498 144.133 24.9211 143.793 25.0109C143.454 25.1006 143.136 25.1455 142.839 25.1455C142.101 25.1455 141.528 24.9864 141.121 24.6682C140.722 24.35 140.433 23.9543 140.255 23.4811C140.077 23.0078 139.971 22.5387 139.937 22.0735C139.903 21.6003 139.886 21.2128 139.886 20.9109V14.6691H136.373V22.0859C136.373 22.3061 136.39 22.657 136.424 23.1383C136.458 23.6197 136.556 24.1542 136.717 24.7417C136.878 25.3209 137.145 25.8798 137.519 26.4183C137.901 26.9569 138.431 27.4015 139.11 27.7524C139.788 28.1032 140.667 28.2787 141.744 28.2787Z" fill="#FF5722"/>
<path d="M151.258 27.887H154.745V19.8827C154.745 19.124 154.961 18.508 155.394 18.0347C155.835 17.5533 156.416 17.3126 157.138 17.3126C157.893 17.3126 158.483 17.5575 158.907 18.047C159.339 18.5284 159.556 19.2056 159.556 20.0786V27.887H163.018V19.8827C163.018 19.124 163.234 18.508 163.667 18.0347C164.108 17.5533 164.689 17.3126 165.41 17.3126C166.166 17.3126 166.755 17.5575 167.179 18.047C167.612 18.5284 167.829 19.2056 167.829 20.0786V27.887H171.29V19.1974C171.29 17.7532 170.887 16.5865 170.081 15.6971C169.284 14.7996 168.1 14.3508 166.53 14.3508C165.648 14.3508 164.838 14.5344 164.099 14.9015C163.361 15.2688 162.772 15.7706 162.33 16.407C161.974 15.7869 161.465 15.2892 160.803 14.9139C160.141 14.5385 159.318 14.3508 158.334 14.3508C157.502 14.3508 156.739 14.51 156.043 14.8282C155.347 15.1382 154.77 15.5666 154.312 16.1132V14.669H151.258V27.887Z" fill="#FF5722"/>
<path d="M20 0C8.9543 0 0 8.61064 0 19.2324C11.0457 19.2324 20 10.6218 20 0Z" fill="#FF5722"/>
<path d="M20 38.4648C31.0457 38.4648 40 29.8542 40 19.2324C28.9543 19.2324 20 27.8431 20 38.4648Z" fill="#FF5722"/>
<path d="M20 0C31.0457 0 40 8.61064 40 19.2324C28.9543 19.2324 20 10.6218 20 0Z" fill="#FF5722"/>
<path d="M20 38.4648C8.9543 38.4648 -9.65645e-07 29.8542 0 19.2324C11.0457 19.2324 20 27.8431 20 38.4648Z" fill="#FF5722"/>
</svg>
