<svg width="22" height="23" viewBox="0 0 22 23" fill="none" xmlns="http://www.w3.org/2000/svg">
<g opacity="0.8">
<path d="M9.60128 18.7711C8.96889 19.5718 8.05054 20.0807 7.04831 20.186C6.04608 20.2913 5.04208 19.9844 4.25709 19.3327C3.47211 18.6809 2.97048 17.7379 2.86258 16.7109C2.75467 15.6839 3.04929 14.6571 3.68167 13.8565L6.59573 10.1671C7.22889 9.36759 8.14705 8.8595 9.14887 8.75424C10.1507 8.64897 11.1545 8.95515 11.94 9.60555C12.0633 9.71652 12.1402 9.87184 12.1545 10.039C12.1687 10.2062 12.1193 10.3722 12.0166 10.5022C11.9138 10.6323 11.7657 10.7164 11.6033 10.7368C11.4408 10.7572 11.2767 10.7125 11.1452 10.6118C10.8871 10.3942 10.5896 10.2311 10.2699 10.1321C9.95033 10.033 9.61501 9.99994 9.28346 10.0348C8.95192 10.0696 8.63076 10.1717 8.33872 10.335C8.04668 10.4983 7.78956 10.7197 7.58234 10.9862L4.66828 14.6756C4.45953 14.9399 4.30385 15.244 4.21015 15.5705C4.11645 15.897 4.08658 16.2395 4.1222 16.5785C4.15782 16.9175 4.25826 17.2464 4.41778 17.5463C4.57729 17.8462 4.79277 18.1113 5.05189 18.3264C5.31102 18.5415 5.60868 18.7025 5.92796 18.8001C6.24725 18.8977 6.58187 18.93 6.91271 18.8953C7.24354 18.8605 7.56414 18.7593 7.85617 18.5975C8.14819 18.4356 8.40592 18.2163 8.61467 17.952L11.5287 14.2626C11.5796 14.1926 11.6438 14.134 11.7175 14.0902C11.7911 14.0464 11.8728 14.0183 11.9574 14.0077C12.0421 13.997 12.1281 14.004 12.2103 14.0282C12.2924 14.0525 12.3691 14.0934 12.4356 14.1486C12.502 14.2038 12.557 14.2721 12.5972 14.3495C12.6374 14.4268 12.6619 14.5116 12.6694 14.5988C12.6768 14.6859 12.667 14.7736 12.6406 14.8566C12.6141 14.9396 12.5715 15.0161 12.5153 15.0817L9.60128 18.7711ZM14.8997 12.0628C14.2666 12.8623 13.3484 13.3704 12.3466 13.4757C11.3448 13.5809 10.3411 13.2748 9.55556 12.6244C9.487 12.5719 9.4294 12.5059 9.38626 12.4302C9.34312 12.3545 9.31529 12.2708 9.30447 12.184C9.29364 12.0972 9.30006 12.0092 9.32328 11.9252C9.34651 11.8412 9.38606 11.7629 9.43962 11.6951C9.49317 11.6272 9.55964 11.5713 9.63497 11.5306C9.71029 11.4898 9.79294 11.4651 9.87799 11.4579C9.96304 11.4507 10.0487 11.4612 10.1299 11.4887C10.2111 11.5162 10.2861 11.5603 10.3504 11.6181C10.6084 11.8357 10.9059 11.9988 11.2255 12.0978C11.5451 12.1969 11.8805 12.23 12.2121 12.1952C12.5436 12.1603 12.8647 12.0583 13.1568 11.8949C13.4488 11.7316 13.7059 11.5102 13.9131 11.2437L16.8272 7.55431C17.0359 7.29001 17.1916 6.98595 17.2853 6.65944C17.379 6.33294 17.4089 5.99039 17.3733 5.65139C17.3377 5.31238 17.2372 4.98354 17.0777 4.68364C16.9182 4.38374 16.7028 4.11869 16.4436 3.90356C16.1845 3.68843 15.8868 3.52745 15.5675 3.42983C15.2482 3.33222 14.9136 3.29986 14.5828 3.33462C14.2519 3.36939 13.9313 3.47056 13.6393 3.63241C13.3473 3.79426 13.0896 4.0136 12.8808 4.27789L9.96675 7.96732C9.91587 8.03727 9.85168 8.09592 9.77801 8.13972C9.70434 8.18352 9.62271 8.21158 9.53803 8.22222C9.45334 8.23287 9.36734 8.22587 9.28518 8.20166C9.20303 8.17745 9.12641 8.13651 9.05992 8.08132C8.99344 8.02612 8.93845 7.95779 8.89827 7.88043C8.85809 7.80308 8.83353 7.71829 8.82608 7.63115C8.81863 7.54401 8.82843 7.45631 8.8549 7.37332C8.88138 7.29034 8.92398 7.21377 8.98014 7.14821L11.8942 3.45878C12.5266 2.65814 13.4449 2.1492 14.4472 2.04389C15.4494 1.93859 16.4534 2.24556 17.2384 2.89728C18.0234 3.549 18.525 4.49204 18.6329 5.51902C18.7408 6.546 18.4462 7.57277 17.8138 8.37342L14.8997 12.0628Z" fill="white"/>
</g>
</svg>
