<svg width="22" height="23" viewBox="0 0 22 23" fill="none" xmlns="http://www.w3.org/2000/svg">
<path opacity="0.8" d="M11.0037 3.11341C9.67239 3.10571 8.36063 3.44209 7.18971 4.09145C6.01878 4.74081 5.02649 5.6822 4.30455 6.82859C3.58261 7.97499 3.15432 9.2894 3.05927 10.6503C2.96422 12.0112 3.20548 13.3748 3.76075 14.6148C3.10775 18.0705 3.06075 18.4651 3.06075 18.4651C3.0353 18.5946 3.04148 18.7285 3.07876 18.855C3.11603 18.9815 3.18324 19.0965 3.2744 19.1899C3.36556 19.2834 3.47784 19.3522 3.60125 19.3904C3.72466 19.4286 3.85537 19.435 3.98175 19.4089C3.98175 19.4089 4.33275 19.33 7.73875 18.669C8.76007 19.1584 9.87138 19.4194 10.9987 19.4345C12.0445 19.4349 13.08 19.2241 14.0462 18.8143C15.0125 18.4045 15.8905 17.8037 16.6302 17.0462C17.3698 16.2886 17.9567 15.3892 18.3571 14.3992C18.7576 13.4093 18.9639 12.3482 18.9642 11.2765C18.9646 10.2049 18.7589 9.14364 18.3591 8.15342C17.9592 7.16321 17.3729 6.26341 16.6337 5.50539C15.8945 4.74738 15.0169 4.14599 14.0509 3.73558C13.0849 3.32516 12.0495 3.11375 11.0037 3.11341ZM8.76375 7.1942C9.19924 7.26819 9.60121 7.48003 9.91327 7.80001C10.2253 8.11999 10.4318 8.53205 10.5037 8.97839C10.5037 9.23357 9.98275 10.1405 10.0037 10.2533C10.1552 10.7306 10.4149 11.1644 10.7615 11.5191C11.1081 11.8737 11.5317 12.1392 11.9977 12.2937C12.0927 12.3111 12.9977 11.7812 13.2417 11.7812C13.6777 11.8549 14.0803 12.0667 14.3927 12.3869C14.7052 12.7071 14.9119 13.1196 14.9837 13.5665C14.9128 14.0142 14.7066 14.4279 14.394 14.7491C14.0815 15.0703 13.6785 15.2828 13.2417 15.3568C11.8227 15.0857 10.5197 14.3733 9.50975 13.3164L9.00975 12.804C7.97904 11.7685 7.28456 10.4327 7.02075 8.97839C7.09287 8.53162 7.2998 8.11924 7.61243 7.79921C7.92507 7.47918 8.32771 7.2676 8.76375 7.1942Z" fill="white"/>
</svg>
