<svg width="22" height="23" viewBox="0 0 22 23" fill="none" xmlns="http://www.w3.org/2000/svg">
<path opacity="0.8" d="M16.8874 4.84766L4.8514 18.7246M14.4954 18.5453L4.6654 5.59372C4.61354 5.52542 4.58142 5.44357 4.57272 5.35749C4.56401 5.27141 4.57906 5.18455 4.61616 5.10681C4.65326 5.02906 4.71091 4.96355 4.78255 4.91774C4.8542 4.87192 4.93695 4.84764 5.0214 4.84766H6.8874C6.95616 4.84776 7.02397 4.86398 7.08568 4.89506C7.14738 4.92614 7.20133 4.97127 7.2434 5.027L17.0734 17.9785C17.1253 18.0469 17.1574 18.1288 17.1661 18.215C17.1748 18.3012 17.1596 18.3881 17.1224 18.4659C17.0852 18.5437 17.0274 18.6092 16.9556 18.6549C16.8838 18.7007 16.8009 18.7248 16.7164 18.7246H14.8504C14.7816 18.7245 14.7138 18.7083 14.6521 18.6772C14.5904 18.6461 14.5375 18.601 14.4954 18.5453Z" stroke="white" stroke-width="1.5" stroke-linecap="round"/>
</svg>
