<svg width="32" height="32" viewBox="0 0 32 32" fill="none" xmlns="http://www.w3.org/2000/svg">
<path opacity="0.57" d="M31.407 15.4075H28.4441V12.4445C28.4441 11.6593 28.1315 10.9052 27.5759 10.3497C27.0204 9.79415 26.2663 9.48153 25.4812 9.48153H23.1108C22.1775 9.47708 21.2975 9.91707 20.7405 10.6667C20.1834 9.91707 19.3034 9.47709 18.3701 9.48153H13.6295C12.6962 9.47708 11.8162 9.91707 11.2591 10.6667C10.7021 9.91707 9.82208 9.47709 8.88878 9.48153H6.51844C4.88142 9.48153 3.55551 10.8075 3.55551 12.4445V15.4075H0.592585C0.265182 15.4075 0 15.6727 0 16.0001C0 16.3275 0.265182 16.5927 0.592585 16.5927H4.74087V31.4074C4.74087 31.5644 4.80309 31.7155 4.9142 31.8267C5.02531 31.9378 5.17642 32 5.33347 32H26.6665C26.8236 32 26.9747 31.9378 27.0858 31.8267C27.1969 31.7156 27.2591 31.5644 27.2591 31.4074V16.5927H31.4074C31.7348 16.5927 32 16.3275 32 16.0001C32 15.6727 31.7348 15.4075 31.4074 15.4075H31.407ZM13.6295 10.6667H18.3701C19.3523 10.6667 20.1479 11.4623 20.1479 12.4445V15.4075H18.9627V13.6297C18.9627 13.3023 18.6975 13.0371 18.3701 13.0371C18.0427 13.0371 17.7776 13.3023 17.7776 13.6297V15.4075H14.222V13.6297C14.222 13.3023 13.9569 13.0371 13.6295 13.0371C13.3021 13.0371 13.0369 13.3023 13.0369 13.6297V15.4075H11.8517V12.4445C11.8517 11.4623 12.6473 10.6667 13.6295 10.6667ZM4.74049 12.4445C4.74049 11.4623 5.53605 10.6667 6.51825 10.6667H8.88859C9.87078 10.6667 10.6663 11.4623 10.6663 12.4445V15.4075H9.48117V14.8149C9.48117 14.4875 9.21599 14.2223 8.88859 14.2223C8.56118 14.2223 8.296 14.4875 8.296 14.8149V15.4075H7.11083V14.8149C7.11083 14.4875 6.84565 14.2223 6.51825 14.2223C6.19084 14.2223 5.92566 14.4875 5.92566 14.8149V15.4075H4.74049V12.4445ZM26.0736 30.8152H5.92566V16.5929H26.0736V30.8152ZM26.0736 15.4077V14.8151C26.0736 14.4877 25.8084 14.2225 25.481 14.2225C25.1536 14.2225 24.8884 14.4877 24.8884 14.8151V15.4077H23.7032V14.8151C23.7032 14.4877 23.438 14.2225 23.1106 14.2225C22.7832 14.2225 22.518 14.4877 22.518 14.8151V15.4077H21.3329V12.4447C21.3329 11.4625 22.1284 10.6669 23.1106 10.6669H25.481C26.4632 10.6669 27.2587 11.4625 27.2587 12.4447V15.4077H26.0736ZM15.9998 8.29652C17.6768 8.29652 19.1894 7.28613 19.8322 5.73651C20.4736 4.18541 20.1196 2.40166 18.9329 1.21495C17.7463 0.0282447 15.9626 -0.325796 14.4114 0.315687C12.8618 0.958649 11.8515 2.47126 11.8515 4.14812C11.8515 6.43852 13.7093 8.29652 15.9998 8.29652ZM15.9998 1.18537C17.1983 1.18537 18.2783 1.90684 18.7376 3.015C19.1953 4.12169 18.942 5.39574 18.0946 6.24316C17.2472 7.09059 15.9731 7.34389 14.8665 6.88613C13.7584 6.42688 13.0369 5.34686 13.0369 4.14831C13.0369 2.51127 14.3628 1.18537 15.9998 1.18537ZM7.70361 7.11133C8.90213 7.11133 9.98209 6.38986 10.4414 5.2817C10.8991 4.17501 10.6458 2.90096 9.79842 2.05354C8.95101 1.20612 7.67695 0.952808 6.57032 1.41058C5.46218 1.86982 4.74072 2.94985 4.74072 4.14839C4.74072 4.93358 5.05331 5.68766 5.60887 6.2432C6.1644 6.79874 6.91844 7.11133 7.70361 7.11133ZM7.70361 2.37056C8.4221 2.37056 9.07101 2.80315 9.34654 3.46834C9.62061 4.13204 9.4695 4.89648 8.96137 5.40613C8.45172 5.91427 7.6873 6.0654 7.0236 5.79131C6.35843 5.51576 5.92585 4.86686 5.92585 4.14835C5.92585 3.16614 6.72141 2.37056 7.70361 2.37056ZM24.296 7.11133C25.4945 7.11133 26.5745 6.38986 27.0338 5.2817C27.4915 4.17501 27.2382 2.90096 26.3908 2.05354C25.5434 1.20612 24.2693 0.952808 23.1627 1.41058C22.0546 1.86982 21.3331 2.94985 21.3331 4.14839C21.3331 4.93358 21.6457 5.68766 22.2013 6.2432C22.7568 6.79874 23.5108 7.11133 24.296 7.11133ZM24.296 2.37056C25.0145 2.37056 25.6634 2.80315 25.9389 3.46834C26.213 4.13204 26.0619 4.89648 25.5537 5.40613C25.0441 5.91427 24.2797 6.0654 23.616 5.79131C22.9508 5.51576 22.5182 4.86686 22.5182 4.14835C22.5182 3.16614 23.3138 2.37056 24.296 2.37056Z" fill="white"/>
</svg>
