<svg width="32" height="32" viewBox="0 0 32 32" fill="none" xmlns="http://www.w3.org/2000/svg">
<path d="M23.7384 6.79883C19.1834 6.79883 15.4766 10.568 15.4766 15.1994C15.4766 19.8309 19.1834 23.6 23.7384 23.6C28.2934 23.6 32.0003 19.8309 32.0003 15.1994C32.0003 10.568 28.2934 6.79883 23.7384 6.79883ZM26.0077 17.1481C26.3602 17.7922 26.6851 18.145 26.9715 18.4586C27.2194 18.733 27.4397 18.9682 27.66 19.3826C27.9023 19.8307 28.0676 20.3347 28.1502 20.8779C28.1502 20.8891 28.1557 20.8947 28.1612 20.9059C27.0762 21.774 25.7433 22.3284 24.2893 22.446V15.7536H25.446C25.5506 16.2968 25.793 16.7449 26.0133 17.1425L26.0077 17.1481ZM21.4692 13.2504C21.1167 12.6063 20.7918 12.2535 20.5054 11.9399C20.2575 11.6655 20.0372 11.4303 19.8169 11.0159C19.5745 10.5678 19.4093 10.0638 19.3267 9.52058C19.3267 9.50938 19.3212 9.50378 19.3157 9.49258C20.4007 8.62453 21.7336 8.07009 23.1875 7.95249V14.6449H22.0309C21.9263 14.1017 21.6839 13.6536 21.4636 13.256L21.4692 13.2504ZM25.4458 14.6392H24.2892V7.94684C25.7432 8.05885 27.0761 8.61328 28.161 9.48693C28.161 9.49813 28.15 9.50373 28.15 9.51493C28.0674 10.0581 27.9021 10.5622 27.6598 11.0102C27.434 11.4246 27.2192 11.6654 26.9713 11.9342C26.6849 12.2479 26.36 12.6063 26.013 13.2447C25.7927 13.6479 25.5504 14.0904 25.4458 14.6392ZM22.0309 15.7593H23.1876V22.4517C21.7335 22.3396 20.4006 21.7852 19.3157 20.9116C19.3157 20.9004 19.3212 20.8948 19.3267 20.8836C19.4093 20.3403 19.5746 19.8363 19.8169 19.3883C20.0427 18.9739 20.2575 18.7331 20.5054 18.4642C20.7918 18.1506 21.1167 17.7922 21.4637 17.1538C21.6841 16.7506 21.9263 16.3081 22.0309 15.7593ZM26.9769 13.788C27.2633 13.2672 27.5166 12.9871 27.781 12.6959C28.0564 12.3935 28.3428 12.0855 28.6292 11.5479C28.8274 11.1839 28.9762 10.7918 29.0918 10.3774C30.0998 11.5311 30.7497 13.0096 30.8763 14.6394H26.5914C26.674 14.3761 26.8007 14.1185 26.9824 13.7881L26.9769 13.788ZM18.3903 10.3774C18.506 10.7918 18.6547 11.1839 18.853 11.5479C19.1449 12.0855 19.4258 12.3991 19.7012 12.6959C19.971 12.9871 20.2189 13.2672 20.5053 13.788C20.6815 14.1128 20.8137 14.376 20.8908 14.6336H16.6059C16.727 13.0039 17.3825 11.5255 18.3904 10.3717L18.3903 10.3774ZM16.6058 15.7594H20.8908C20.8082 16.0226 20.6815 16.2802 20.4997 16.6107C20.2133 17.1315 19.96 17.4115 19.6956 17.7027C19.4202 18.0051 19.1338 18.3131 18.8474 18.8508C18.6491 19.2148 18.5004 19.6068 18.3848 20.0212C17.3768 18.8675 16.7269 17.3891 16.6002 15.7593L16.6058 15.7594ZM29.0864 20.0214C28.9707 19.607 28.822 19.2149 28.6237 18.8509C28.3318 18.3133 28.0509 17.9997 27.7755 17.6972C27.5057 17.406 27.2578 17.126 26.9714 16.6052C26.7952 16.2804 26.663 16.0172 26.5859 15.7595H30.8708C30.7497 17.3892 30.0943 18.8676 29.0864 20.0214Z" fill="#808080"/>
<path d="M11.6211 18.5586C7.97483 18.5586 5.01172 21.5715 5.01172 25.2789C5.01172 28.9863 7.9749 31.9993 11.6211 31.9993C15.2673 31.9993 18.2304 28.9863 18.2304 25.2789C18.2304 21.5715 15.2673 18.5586 11.6211 18.5586ZM11.6211 30.8792C8.58627 30.8792 6.11328 28.3647 6.11328 25.2789C6.11328 22.1932 8.58627 19.6786 11.6211 19.6786C14.6559 19.6786 17.1289 22.1932 17.1289 25.2789C17.1289 28.3647 14.6559 30.8792 11.6211 30.8792Z" fill="#808080"/>
<path d="M20.257 0.817623C19.7393 0.291179 19.0453 0 18.3073 0C17.5693 0 16.8863 0.291215 16.3575 0.817623L11.5438 5.71218C10.8333 6.43461 10.2109 7.24664 9.68769 8.1315L8.84501 9.55958C8.37685 10.3548 7.80404 11.094 7.1541 11.7605L1.55817 17.4561C1.10102 17.4169 0.682424 17.5457 0.396018 17.8425C0.0600438 18.1841 -0.0721365 18.6993 0.0380195 19.2538C0.13165 19.7354 0.396018 20.217 0.787081 20.6147C1.30483 21.1411 1.9327 21.4155 2.49452 21.4155C2.88558 21.4155 3.24358 21.2811 3.51345 21.0123C3.81638 20.7043 3.93204 20.2786 3.89902 19.825L9.50058 14.1294C10.1505 13.4686 10.8775 12.8861 11.6651 12.4101L13.0696 11.5533C13.9399 11.0212 14.7385 10.3884 15.449 9.66599L20.2627 4.77144C21.3312 3.67378 21.3312 1.8985 20.2627 0.811996L20.257 0.817623ZM6.92832 15.1601L5.95345 14.5665L6.70801 13.7992L7.68289 14.3928L6.92832 15.1601ZM5.36961 16.745L4.40023 16.1514L5.15479 15.3841L6.12417 15.9777L5.36961 16.745ZM2.73136 20.2227C2.57164 20.3851 2.03736 20.3123 1.56371 19.8251C1.33238 19.5899 1.16715 19.3043 1.11758 19.0411C1.08454 18.8619 1.10657 18.7106 1.17817 18.6378C1.22774 18.5874 1.31036 18.5594 1.41501 18.5594C1.46458 18.5594 1.51415 18.5594 1.57473 18.5762C1.8336 18.6266 2.11448 18.7946 2.34583 19.0299C2.81951 19.5115 2.89661 20.0547 2.73689 20.2171L2.73136 20.2227ZM3.11693 18.2458C2.98474 18.1114 2.84154 17.9938 2.6873 17.893L3.59058 16.9746L4.55995 17.5682L3.46389 18.6826C3.36475 18.5314 3.24908 18.3858 3.1169 18.2514L3.11693 18.2458ZM19.475 3.98761L14.6613 8.88217C14.0169 9.53739 13.2843 10.1198 12.4912 10.6015L11.0867 11.4583C10.2275 11.9847 9.42888 12.6176 8.71285 13.3456L8.48704 13.5752L7.51216 12.9816L7.93625 12.5504C8.65225 11.8224 9.27466 11.0103 9.79238 10.1366L10.6351 8.70856C11.1087 7.90212 11.6816 7.15729 12.326 6.50207L17.1344 1.60751C17.7733 0.969098 18.8583 0.974689 19.4752 1.60751C20.1196 2.26274 20.1194 3.3268 19.475 3.98761Z" fill="#808080"/>
<path d="M11.6211 21.6408C11.6211 22.7609 9.96875 22.7609 9.96875 21.6408C9.96875 20.5208 11.6211 20.5208 11.6211 21.6408Z" fill="#808080"/>
<path d="M9.41797 22.76C9.41797 23.88 7.76562 23.88 7.76562 22.76C7.76562 21.6399 9.41797 21.6399 9.41797 22.76Z" fill="#808080"/>
<path d="M11.6211 23.8791C11.6211 24.9992 9.96875 24.9992 9.96875 23.8791C9.96875 22.759 11.6211 22.759 11.6211 23.8791Z" fill="#808080"/>
</svg>
