<svg width="30" height="32" viewBox="0 0 30 32" fill="none" xmlns="http://www.w3.org/2000/svg">
<path d="M29.4316 17.0215H25.5263V15.7793C25.5263 15.6197 25.4461 15.4586 25.325 15.3381L15.58 6.64748V4.76541H19.9289C20.2513 4.76541 20.4919 4.52448 20.4919 4.20534V0.560071C20.4919 0.239352 20.2497 0 19.9289 0H15.0171C14.6947 0 14.4541 0.24093 14.4541 0.560071V6.6474L4.66961 15.3789C4.54851 15.4994 4.4683 15.6589 4.4683 15.8201V17.0623H0.563046C0.240623 17.0623 0 17.3032 0 17.6224V29.2371C0 30.7594 1.24882 32 2.77755 32H27.2188C28.7491 32 29.9963 30.7578 29.9963 29.2371V17.6224C30.0356 17.3017 29.754 17.0215 29.4316 17.0215ZM15.5801 1.12014H19.3642V3.60298H15.5801V1.12014ZM4.46813 30.8391H2.77739C1.89191 30.8391 1.16684 30.1178 1.16684 29.237V18.1822H4.46813V30.8391ZM14.4539 30.8391H9.94318V23.7489H14.4523L14.4539 30.8391ZM20.0908 30.8391H15.5801V23.7489H20.0892L20.0908 30.8391ZM24.3986 30.8391H21.2577V23.7489H21.5802C21.9026 23.7489 22.1432 23.508 22.1432 23.1888C22.1432 22.8681 21.901 22.6287 21.5802 22.6287H8.45342C8.131 22.6287 7.89037 22.8697 7.89037 23.1888C7.89037 23.5095 8.13258 23.7489 8.45342 23.7489H8.77584V30.8375H5.63496V16.0595L15.0168 7.68969L24.3986 16.0595L24.3986 30.8391ZM28.8671 29.237C28.8671 30.1178 28.142 30.8391 27.2565 30.8391H25.5658V18.1822H28.8671V29.237Z" fill="#808080"/>
<path d="M10.7891 16.3391C10.7891 18.6623 12.6812 20.5444 15.0168 20.5444C17.3524 20.5444 19.2445 18.6623 19.2445 16.3391C19.2445 14.0174 17.3524 12.1337 15.0168 12.1337C12.6812 12.1337 10.7891 14.0174 10.7891 16.3391ZM18.0776 16.3391C18.0776 18.0209 16.7093 19.3836 15.017 19.3836C13.3262 19.3836 11.9563 18.0225 11.9563 16.3391C11.9563 14.6573 13.3246 13.2946 15.017 13.2946C16.7077 13.2961 18.0776 14.6572 18.0776 16.3391Z" fill="#808080"/>
</svg>
