<svg width="32" height="32" viewBox="0 0 32 32" fill="none" xmlns="http://www.w3.org/2000/svg">
<path fill-rule="evenodd" clip-rule="evenodd" d="M23.4341 20.5033V21.3628C23.4341 21.4074 23.3965 21.4478 23.3534 21.4478H19.9208C19.1435 21.4478 18.5111 22.0774 18.5111 22.8548V28.8671C18.5111 28.9883 18.4094 29.0886 18.2896 29.0886H13.2384C13.1186 29.0886 13.0169 28.9883 13.0169 28.8671V22.8548C13.0169 22.076 12.3844 21.4478 11.6071 21.4478H8.17459C8.13141 21.4478 8.09379 21.4074 8.09379 21.3628V20.5033C8.09379 20.4587 8.13141 20.4225 8.17459 20.4225H23.3532C23.3964 20.4225 23.4341 20.4587 23.4341 20.5033ZM16.2418 14.41C16.2418 14.1439 16.0272 13.9294 15.764 13.9294C15.5007 13.9294 15.2861 14.1425 15.2861 14.41V19.4669H8.17471C7.60354 19.4669 7.13829 19.9308 7.13829 20.5033V21.3629C7.13829 21.9354 7.60358 22.3993 8.17471 22.3993H11.6072C11.858 22.3993 12.0613 22.6055 12.0613 22.8548V28.8671C12.0613 29.5163 12.5893 30.0443 13.2371 30.0443H18.2897C18.9389 30.0443 19.4655 29.5163 19.4655 28.8671L19.4669 22.8548C19.4669 22.6041 19.6703 22.3993 19.921 22.3993H23.3535C23.9247 22.3993 24.3899 21.9354 24.3899 21.3629V20.5033C24.3899 19.9308 23.9246 19.4669 23.3535 19.4669H16.2421L16.2418 14.41ZM10.3771 25.7941C10.3771 25.0962 9.81012 24.532 9.11217 24.532H6.3734C6.23549 24.532 6.07111 24.5515 6.01261 24.3593L4.42453 19.0224C4.3493 18.7689 4.08323 18.6268 3.82968 18.6992C3.57614 18.7758 3.43265 19.0419 3.50788 19.2954L5.09735 24.6309C5.19905 24.9736 5.44005 25.2396 5.74791 25.3776L4.45793 29.4203C4.37713 29.6696 4.51643 29.9399 4.76719 30.0207C5.01794 30.1029 5.28679 29.9664 5.3676 29.71L6.71749 25.4833H9.11215C9.2835 25.4833 9.4228 25.624 9.4228 25.794V29.5649C9.4228 29.831 9.63733 30.0455 9.90061 30.0455C10.1653 30.0455 10.3784 29.8324 10.3784 29.5649L10.3771 25.7941ZM25.1588 24.532H22.4158C21.7179 24.532 21.1495 25.0962 21.1495 25.7941V29.5651C21.1495 29.8312 21.3641 30.0457 21.6273 30.0457C21.892 30.0457 22.1052 29.8326 22.1052 29.5651V25.7941C22.1052 25.6242 22.2445 25.4835 22.4158 25.4835H24.8105L26.1604 29.7102C26.2258 29.9164 26.4139 30.0445 26.6159 30.0445C26.9279 30.0445 27.1717 29.7353 27.0714 29.419L25.78 25.3792C26.0879 25.2427 26.3289 24.9752 26.4306 24.6325L28.02 19.2971C28.0953 19.0435 27.9504 18.7775 27.6982 18.7008C27.4461 18.6284 27.1786 18.7691 27.1048 19.024L25.5153 24.3595C25.4568 24.5503 25.2953 24.532 25.1588 24.532ZM20.6075 14.7038H19.1323C19.3747 14.0031 20.3665 14.0031 20.6075 14.7038ZM11.657 14.1758C11.9983 14.1758 12.288 14.3973 12.3953 14.7038H10.9201C11.0246 14.3973 11.3157 14.1758 11.657 14.1758ZM30.572 30.0887V11.5582L16.2414 1.40263V9.14244C18.409 9.36394 20.1307 11.1067 20.3287 13.2839C21.0642 13.4859 21.6061 14.1587 21.6061 14.957V15.1785C21.6061 15.4445 21.3916 15.6591 21.1283 15.6591H18.6124C18.3477 15.6591 18.1346 15.446 18.1346 15.1785V14.957C18.1346 14.1741 18.6556 13.5096 19.3688 13.295C19.1682 11.4841 17.6275 10.0687 15.7637 10.0687C13.8999 10.0687 12.3591 11.4841 12.1586 13.295C12.8719 13.5082 13.3929 14.174 13.3929 14.957V15.1785C13.3929 15.4445 13.1797 15.6591 12.9151 15.6591H10.4006C10.1373 15.6591 9.92277 15.446 9.92277 15.1785V14.957C9.92277 14.1587 10.4647 13.4845 11.2002 13.2839C11.3966 11.1065 13.1184 9.36391 15.2875 9.14244L15.2861 1.40263L0.9555 11.5582V30.0902C0.9555 30.6182 1.38455 31.0458 1.91115 31.0458H29.6176C30.1428 31.0458 30.572 30.6181 30.572 30.0887ZM31.327 10.9245L16.0396 0.0877616C15.8738 -0.0292539 15.6524 -0.0292539 15.4866 0.0877616L0.200601 10.9245C0.0738318 11.0136 0 11.1585 0 11.3117V30.0887C0 31.1419 0.856717 32 1.91129 32H29.6178C30.6709 32 31.529 31.1405 31.529 30.0887V11.3117C31.5277 11.1585 31.4524 11.0136 31.327 10.9245Z" fill="#808080"/>
</svg>
