<svg width="32" height="32" viewBox="0 0 32 32" fill="none" xmlns="http://www.w3.org/2000/svg">
<path d="M31.4667 26.3946H30.208L27.1509 19.7711C27.1083 19.6786 27.04 19.6003 26.9541 19.5453C26.8683 19.4904 26.7686 19.4612 26.6667 19.4612H25.0667V13.0613H25.6C25.7028 13.0612 25.8033 13.0314 25.8896 12.9756C25.9758 12.9197 26.0441 12.8401 26.0862 12.7463C26.1283 12.6526 26.1424 12.5487 26.1268 12.4471C26.1112 12.3455 26.0666 12.2506 25.9984 12.1738L21.7318 7.3738C21.6804 7.31974 21.6186 7.27669 21.5501 7.24727C21.4817 7.21785 21.4079 7.20268 21.3334 7.20268C21.2588 7.20268 21.185 7.21785 21.1166 7.24727C21.0481 7.27669 20.9863 7.31974 20.935 7.3738L16.6683 12.1738C16.6001 12.2506 16.5555 12.3455 16.5399 12.4471C16.5243 12.5487 16.5384 12.6526 16.5805 12.7463C16.6226 12.8401 16.6909 12.9197 16.7771 12.9756C16.8634 13.0314 16.9639 13.0612 17.0667 13.0613H17.6V14.1279H11.2V11.9946H12.2667C12.3702 11.9946 12.4715 11.9645 12.5582 11.9079C12.6449 11.8513 12.7133 11.7707 12.755 11.6759C12.7966 11.5812 12.8098 11.4763 12.7929 11.3742C12.776 11.272 12.7298 11.177 12.6598 11.1007L6.79311 4.70074C6.74194 4.64833 6.6808 4.60668 6.6133 4.57824C6.5458 4.5498 6.47329 4.53516 6.40004 4.53516C6.32679 4.53516 6.25429 4.5498 6.18678 4.57824C6.11928 4.60668 6.05815 4.64833 6.00698 4.70074L0.140319 11.1007C0.0703317 11.177 0.0240629 11.272 0.00715799 11.3742C-0.00974694 11.4763 0.00344284 11.5812 0.0451182 11.6759C0.0867936 11.7707 0.155153 11.8513 0.241855 11.9079C0.328557 11.9645 0.429853 11.9946 0.533385 11.9946H1.60005V27.4612C1.60005 27.6027 1.65624 27.7383 1.75626 27.8384C1.85628 27.9384 1.99193 27.9946 2.13338 27.9946C2.27483 27.9946 2.41049 27.9384 2.51051 27.8384C2.61052 27.7383 2.66671 27.6027 2.66671 27.4612V20.5279H3.73338V27.4612C3.73338 27.6027 3.78957 27.7383 3.88959 27.8384C3.98961 27.9384 4.12526 27.9946 4.26671 27.9946C4.40816 27.9946 4.54382 27.9384 4.64384 27.8384C4.74385 27.7383 4.80005 27.6027 4.80005 27.4612V26.9279H8.00004V27.4612C8.00004 27.6027 8.05623 27.7383 8.15625 27.8384C8.25627 27.9384 8.39192 27.9946 8.53337 27.9946C8.67482 27.9946 8.81048 27.9384 8.9105 27.8384C9.01052 27.7383 9.0667 27.6027 9.0667 27.4612V20.5279H10.1334V27.4612C10.1334 27.6027 10.1896 27.7383 10.2896 27.8384C10.3896 27.9384 10.5253 27.9946 10.6667 27.9946C10.8082 27.9946 10.9438 27.9384 11.0438 27.8384C11.1438 27.7383 11.2 27.6027 11.2 27.4612V20.5279H17.6V27.4612C17.6 27.6027 17.6562 27.7383 17.7562 27.8384C17.8563 27.9384 17.9919 27.9946 18.1334 27.9946C18.2748 27.9946 18.4105 27.9384 18.5105 27.8384C18.6105 27.7383 18.6667 27.6027 18.6667 27.4612V20.5279H24V27.4612C24 27.6027 24.0562 27.7383 24.1562 27.8384C24.2562 27.9384 24.3919 27.9946 24.5333 27.9946C24.6748 27.9946 24.8105 27.9384 24.9105 27.8384C25.0105 27.7383 25.0667 27.6027 25.0667 27.4612V20.5279H26.3253L29.3824 27.1514C29.4251 27.2439 29.4934 27.3222 29.5792 27.3771C29.665 27.4321 29.7648 27.4612 29.8667 27.4612H31.4667C31.6081 27.4612 31.7438 27.405 31.8438 27.305C31.9438 27.205 32 27.0694 32 26.9279C32 26.7865 31.9438 26.6508 31.8438 26.5508C31.7438 26.4508 31.6081 26.3946 31.4667 26.3946ZM21.3334 8.52793L24.4123 11.9946H18.2544L21.3334 8.52793ZM6.40004 5.85007L11.0544 10.9279H1.74565L6.40004 5.85007ZM8.53337 19.4612H4.26671V17.3279C4.26671 16.7621 4.49147 16.2195 4.89155 15.8194C5.29163 15.4193 5.83425 15.1946 6.40004 15.1946C6.96584 15.1946 7.50846 15.4193 7.90853 15.8194C8.30861 16.2195 8.53337 16.7621 8.53337 17.3279V19.4612ZM8.00004 23.7279H4.80005V22.6612H8.00004V23.7279ZM4.80005 25.8612V24.7946H8.00004V25.8612H4.80005ZM8.00004 21.5946H4.80005V20.5279H8.00004V21.5946ZM9.60004 19.4612V17.3279C9.60004 16.4792 9.2629 15.6653 8.66278 15.0652C8.06267 14.4651 7.24873 14.1279 6.40004 14.1279C5.55135 14.1279 4.73742 14.4651 4.1373 15.0652C3.53719 15.6653 3.20005 16.4792 3.20005 17.3279V19.4612H2.66671V11.9946H10.1334V19.4612H9.60004ZM11.2 15.1946H17.6V19.4612H11.2V15.1946ZM18.6667 19.4612V13.0613H24V19.4612H18.6667Z" fill="#808080"/>
</svg>
