<svg width="32" height="32" viewBox="0 0 32 32" fill="none" xmlns="http://www.w3.org/2000/svg">
<path d="M2.47374 29.5594C3.02898 30.1126 3.77994 30.423 4.56269 30.423C5.34543 30.423 6.09639 30.1126 6.65164 29.5594L7.61024 28.5983L7.80995 28.7905C8.08075 29.0716 8.40473 29.2957 8.76295 29.4498C9.12116 29.6038 9.50642 29.6847 9.89618 29.6877C10.2859 29.6907 10.6724 29.6157 11.0329 29.4671C11.3934 29.3186 11.7208 29.0995 11.9958 28.8226C12.3322 28.4889 12.5795 28.0758 12.7148 27.6212L13.1541 28.0617C13.7094 28.6149 14.4604 28.9253 15.2431 28.9253C16.0258 28.9253 16.7768 28.6149 17.332 28.0617C17.8838 27.505 18.1934 26.7521 18.1934 25.9673C18.1934 25.1825 17.8838 24.4296 17.332 23.8729L14.8477 21.3741L21.3342 14.8626L23.8186 17.3615C24.3738 17.9146 25.1248 18.2251 25.9075 18.2251C26.6903 18.2251 27.4412 17.9146 27.9965 17.3615C28.5487 16.8034 28.8586 16.0492 28.8586 15.2631C28.8586 14.477 28.5487 13.7227 27.9965 13.1647L27.5571 12.7242C28.0163 12.5909 28.4341 12.3429 28.7713 12.0033C29.3231 11.4466 29.6327 10.6937 29.6327 9.90893C29.6327 9.12414 29.3231 8.37123 28.7713 7.81453L28.5796 7.6143L29.5382 6.6532C30.0899 6.09651 30.3996 5.34359 30.3996 4.55881C30.3996 3.77402 30.0899 3.0211 29.5382 2.46441C28.9761 1.92447 28.2277 1.62305 27.4493 1.62305C26.6708 1.62305 25.9224 1.92447 25.3603 2.46441L24.4017 3.42551L24.1701 3.19324C23.6066 2.65278 22.8569 2.35113 22.0771 2.35113C21.2973 2.35113 20.5476 2.65278 19.9842 3.19324C19.6537 3.53327 19.4099 3.9481 19.2732 4.40263L18.8418 3.99416C18.2797 3.45422 17.5313 3.1528 16.7529 3.1528C15.9744 3.1528 15.2261 3.45422 14.6639 3.99416C14.1122 4.55085 13.8026 5.30377 13.8026 6.08856C13.8026 6.87334 14.1122 7.62626 14.6639 8.18295L17.1483 10.6738L10.6538 17.1853L8.17741 14.6944C7.6153 14.1545 6.86691 13.853 6.08846 13.853C5.31 13.853 4.56162 14.1545 3.99951 14.6944C3.44896 15.2412 3.13603 15.9838 3.12878 16.7608C3.12849 17.1504 3.2061 17.5361 3.35703 17.8952C3.50796 18.2542 3.72914 18.5793 4.0075 18.8512L4.46283 19.3157C3.99078 19.4329 3.55808 19.6734 3.20866 20.0125C2.65645 20.5705 2.34659 21.3248 2.34659 22.1109C2.34659 22.897 2.65645 23.6512 3.20866 24.2093L3.40837 24.4015L2.44977 25.3626C1.90073 25.9238 1.59517 26.6799 1.59966 27.466C1.60415 28.2521 1.91833 29.0045 2.47374 29.5594ZM26.4388 3.56167C26.6972 3.31488 27.0404 3.17723 27.3974 3.17723C27.7543 3.17723 28.0975 3.31488 28.356 3.56167C28.4828 3.68818 28.5834 3.83857 28.652 4.0042C28.7207 4.16982 28.756 4.34741 28.756 4.52677C28.756 4.70613 28.7207 4.88372 28.652 5.04934C28.5834 5.21497 28.4828 5.36536 28.356 5.49187L27.3974 6.45297L25.4802 4.53077L26.4388 3.56167ZM21.1265 6.25275C20.9999 6.12691 20.8995 5.9772 20.8309 5.81224C20.7624 5.64728 20.7271 5.47035 20.7271 5.29165C20.7271 5.11294 20.7624 4.93601 20.8309 4.77105C20.8995 4.60609 20.9999 4.45638 21.1265 4.33055C21.2517 4.2033 21.401 4.10234 21.5656 4.03359C21.7302 3.96483 21.9068 3.92964 22.0851 3.93009C22.4449 3.93097 22.7897 4.075 23.0437 4.33055L26.8462 8.15092L27.6051 8.95183C27.7434 9.07509 27.8551 9.2254 27.9334 9.39352C28.0117 9.56164 28.0549 9.74404 28.0604 9.9295C28.0658 10.115 28.0334 10.2996 27.9651 10.472C27.8968 10.6445 27.7941 10.8011 27.6632 10.9323C27.5323 11.0635 27.3761 11.1665 27.2041 11.235C27.0321 11.3035 26.848 11.336 26.663 11.3305C26.478 11.3251 26.2961 11.2818 26.1284 11.2033C25.9607 11.1248 25.8108 11.0127 25.6879 10.874L21.1265 6.25275ZM15.3989 6.05252C15.3973 5.78364 15.4756 5.52039 15.6238 5.29632C15.7721 5.07225 15.9835 4.89752 16.2312 4.79441C16.4788 4.69131 16.7515 4.66449 17.0145 4.71739C17.2774 4.77028 17.5187 4.90049 17.7075 5.09142L26.8541 14.2699C26.98 14.3959 27.0794 14.5458 27.1467 14.7108C27.2139 14.8759 27.2475 15.0528 27.2456 15.231C27.2466 15.4092 27.2126 15.5858 27.1454 15.7507C27.0782 15.9156 26.9793 16.0656 26.8541 16.1921C26.5957 16.4389 26.2525 16.5766 25.8955 16.5766C25.5386 16.5766 25.1954 16.4389 24.9369 16.1921L15.7903 7.02163C15.5371 6.7632 15.3964 6.41474 15.3989 6.05252ZM18.2747 11.7791L20.1919 13.7013L13.7053 20.2127L11.7881 18.2905L18.2747 11.7791ZM5.12586 15.7837C5.37986 15.5281 5.72463 15.3841 6.08447 15.3832C6.26277 15.3828 6.43938 15.4179 6.60397 15.4867C6.76855 15.5555 6.91783 15.6564 7.04307 15.7837L10.0866 18.8351L13.1302 21.8866L16.1817 24.9461C16.4354 25.2013 16.5778 25.547 16.5778 25.9072C16.5778 26.2675 16.4354 26.6131 16.1817 26.8683C15.9242 27.117 15.5806 27.2559 15.2231 27.2559C14.8656 27.2559 14.522 27.117 14.2645 26.8683L11.9958 24.6017L7.41053 20.0125L5.12586 17.7219C4.87098 17.4672 4.72733 17.1215 4.72645 16.7608C4.726 16.582 4.7611 16.4049 4.82968 16.2399C4.89826 16.0749 4.99895 15.9252 5.12586 15.7997V15.7837ZM4.32703 21.1338C4.45227 21.0065 4.60154 20.9056 4.76613 20.8368C4.93072 20.7681 5.10733 20.7329 5.28563 20.7333C5.64546 20.7342 5.99023 20.8782 6.24423 21.1338L10.8136 25.723C11.0672 25.9782 11.2097 26.3238 11.2097 26.6841C11.2097 27.0444 11.0672 27.39 10.8136 27.6452C10.5551 27.892 10.2119 28.0297 9.85496 28.0297C9.49805 28.0297 9.15481 27.892 8.89636 27.6452L8.13747 26.8443L5.12586 23.8409L4.32703 23.08C4.20281 22.9509 4.10527 22.7984 4.04001 22.6313C3.97476 22.4643 3.94308 22.2859 3.94679 22.1066C3.9505 21.9272 3.98953 21.7503 4.06164 21.5861C4.13375 21.4219 4.23752 21.2737 4.36697 21.1498L4.32703 21.1338ZM3.5282 26.4839L4.4868 25.5228L6.48388 27.461L5.52528 28.4221C5.3994 28.5489 5.24985 28.6495 5.08517 28.7183C4.92049 28.7871 4.74391 28.8227 4.56551 28.8231C4.38711 28.8234 4.21039 28.7886 4.04542 28.7205C3.88046 28.6524 3.7305 28.5523 3.60409 28.4261C3.47768 28.2999 3.3773 28.15 3.30869 27.9849C3.24007 27.8198 3.20457 27.6427 3.2042 27.4639C3.20383 27.285 3.2386 27.1078 3.30652 26.9424C3.37445 26.777 3.47421 26.6267 3.60009 26.4999L3.5282 26.4839Z" fill="#808080"/>
</svg>
