<svg width="33" height="23" viewBox="0 0 33 23" fill="none" xmlns="http://www.w3.org/2000/svg">
<path d="M16.4668 10.3461C13.7519 10.3461 11.5438 8.13794 11.5438 5.42303C11.5438 2.70812 13.7519 0.5 16.4668 0.5C19.1817 0.5 21.3899 2.70812 21.3899 5.42303C21.3899 8.13794 19.1817 10.3461 16.4668 10.3461ZM16.4668 1.22398C14.1501 1.22398 12.2678 3.10631 12.2678 5.42303C12.2678 7.73975 14.1501 9.62209 16.4668 9.62209C18.7835 9.62209 20.6659 7.73975 20.6659 5.42303C20.6659 3.10631 18.7835 1.22398 16.4668 1.22398Z" fill="#808080" stroke="#808080"/>
<path d="M27 10.7803C25.1176 10.7803 23.5973 9.26 23.5973 7.37766C23.5973 5.49532 25.1176 3.97498 27 3.97498C28.8823 3.97498 30.4027 5.49532 30.4027 7.37766C30.4027 9.26 28.8823 10.7803 27 10.7803ZM27 4.69895C25.5158 4.69895 24.3213 5.89351 24.3213 7.37766C24.3213 8.86181 25.5158 10.0564 27 10.0564C28.4841 10.0564 29.6787 8.86181 29.6787 7.37766C29.6787 5.89351 28.4841 4.69895 27 4.69895Z" fill="#808080" stroke="#808080"/>
<path d="M5.9321 10.7803C4.04977 10.7803 2.52942 9.26 2.52942 7.37766C2.52942 5.49532 4.04977 3.97498 5.9321 3.97498C7.81444 3.97498 9.33479 5.49532 9.33479 7.37766C9.33479 9.26 7.81444 10.7803 5.9321 10.7803ZM5.9321 4.69895C4.44795 4.69895 3.25339 5.89351 3.25339 7.37766C3.25339 8.86181 4.44795 10.0564 5.9321 10.0564C7.41625 10.0564 8.61081 8.86181 8.61081 7.37766C8.61081 5.89351 7.41625 4.69895 5.9321 4.69895Z" fill="#808080" stroke="#808080"/>
<path d="M27.0348 18.7804C25.5868 18.7804 24.6819 18.708 23.9579 18.5994L23.6683 18.5632V18.1288C23.6683 16.5722 23.1615 15.0157 22.2565 13.6401L22.1479 13.4591L22.2565 13.2781C23.1977 11.3596 25.08 10.1288 27.0348 10.1288C29.9669 10.1288 32.4646 12.7714 32.5008 15.9206C32.4646 18.7804 29.8221 18.7804 27.0348 18.7804ZM24.3923 17.9116C25.0439 17.984 25.8402 18.0564 27.0348 18.0564C30.2927 18.0564 31.7406 17.8392 31.7406 15.8845C31.7044 13.1333 29.5325 10.8166 26.9986 10.8166C25.3696 10.8166 23.8131 11.794 22.9805 13.3505C23.8855 14.7623 24.3561 16.355 24.3923 17.9116Z" fill="#808080" stroke="#808080"/>
<path d="M5.92982 18.7804C3.14251 18.7804 0.5 18.7804 0.5 15.8845C0.5 12.7352 2.99772 10.0927 5.92982 10.0927C7.88455 10.0927 9.76689 11.3234 10.7081 13.2419L10.8167 13.4229L10.6719 13.6039C9.73069 14.9795 9.2601 16.536 9.2963 18.0926V18.5632L9.00671 18.5994C8.28274 18.708 7.37777 18.7804 5.92982 18.7804ZM5.92982 10.8166C3.4321 10.8166 1.22398 13.1695 1.22398 15.8845C1.22398 17.8392 2.67193 18.0564 5.92982 18.0564C7.12438 18.0564 7.92075 18.0202 8.57233 17.9116C8.57233 16.355 9.04291 14.7623 9.94788 13.3505C9.11531 11.794 7.55876 10.8166 5.92982 10.8166Z" fill="#808080" stroke="#808080"/>
<path d="M16.4657 22.2193C12.3753 22.2193 8.53821 22.2193 8.53821 18.0926C8.53821 13.5678 12.2305 9.6221 16.4657 9.6221C20.701 9.6221 24.3933 13.5678 24.3933 18.0926C24.3933 22.2193 20.5562 22.2193 16.4657 22.2193ZM16.4657 10.3461C12.6287 10.3461 9.26218 13.966 9.26218 18.0926C9.26218 21.1695 11.5789 21.4953 16.4657 21.4953C21.3526 21.4953 23.6693 21.1695 23.6693 18.0926C23.6693 13.966 20.3028 10.3461 16.4657 10.3461Z" fill="#808080" stroke="#808080"/>
</svg>
