<svg width="32" height="26" viewBox="0 0 32 26" fill="none" xmlns="http://www.w3.org/2000/svg">
<path fill-rule="evenodd" clip-rule="evenodd" d="M17.1066 19.4089V16.7017H8.11958V18.7739C8.99828 19.0841 9.49727 19.466 10.4925 19.405C12.0977 19.3069 13.4247 17.7955 16.3239 19.1226C16.6063 19.2525 16.8653 19.3453 17.1066 19.4089ZM0.433146 25.1111C-0.467483 24.7001 0.178173 23.377 1.07879 23.788C4.15764 25.1946 4.91165 22.1653 8.70065 23.9007C11.7754 25.3087 12.5335 22.278 16.3225 24.0121C19.3973 25.42 20.1554 22.3894 23.9444 24.1248C27.0191 25.5327 27.7716 22.5034 31.5663 24.2361C32.4669 24.6484 31.8199 25.9702 30.9206 25.5592C27.8431 24.1526 27.0877 27.1819 23.2987 25.4465C20.224 24.0386 19.4659 27.0692 15.6769 25.3338C12.6021 23.9259 11.844 26.9566 8.05501 25.2211C4.98163 23.8145 4.22355 26.8452 0.433146 25.1111ZM6.60321 18.4729V7.60173H0.7553C-0.242677 7.60173 -0.242677 6.13545 0.7553 6.13545H6.60321C6.60321 4.17863 6.34275 2.60879 7.82052 1.1796C10.4443 -1.35792 14.8939 0.480922 14.8939 4.01144V6.13531H17.105C17.105 4.17849 16.8446 2.60866 18.3223 1.17947C20.9461 -1.35805 25.3957 0.482111 25.3957 4.01131V6.13517H31.245C32.243 6.13517 32.243 7.60146 31.245 7.60146H18.6224V19.4446C20.2112 19.0933 21.3599 18.0526 23.9453 19.2365C27.02 20.6444 27.7726 17.6151 31.5672 19.3492C32.4678 19.7615 31.8208 21.0833 30.9215 20.6723C27.8427 19.2657 27.0887 22.295 23.2997 20.5596C20.2249 19.1517 19.4668 22.1823 15.6778 20.4469C12.603 19.039 11.8449 22.0696 8.05592 20.3342C4.97981 18.9263 4.22867 21.9556 0.434058 20.2215C-0.466571 19.8092 0.180454 18.4874 1.0797 18.8984C3.53895 20.0227 4.28058 18.392 6.60265 18.4729L6.60321 18.4729ZM17.1066 15.2354V12.263H8.11958V15.2354H17.1066ZM17.1066 10.7968V7.60034L8.11958 7.60167V10.7981L17.1066 10.7968ZM23.8813 6.13551V4.01165C23.8813 1.78172 21.0656 0.60039 19.3946 2.21655C18.9176 2.67793 18.6215 3.31297 18.6215 4.01165V6.13551H23.8813ZM8.11958 6.13551H13.3793V4.01165C13.3793 1.78172 10.5637 0.60039 8.89268 2.21655C8.41563 2.67793 8.11955 3.31297 8.11955 4.01165L8.11958 6.13551Z" fill="#808080"/>
</svg>
