<svg width="18" height="18" viewBox="0 0 18 18" fill="none" xmlns="http://www.w3.org/2000/svg">
<path d="M7.52526 3.98859L8.01202 4.86079C8.4513 5.6479 8.27496 6.68046 7.5831 7.37232C7.5831 7.37232 6.7439 8.21152 8.26546 9.73308C9.78699 11.2546 10.6262 10.4154 10.6262 10.4154C11.3181 9.72358 12.3506 9.54724 13.1377 9.98651L14.0099 10.4733C15.1985 11.1366 15.3389 12.8034 14.2941 13.8481C13.6664 14.4759 12.8974 14.9643 12.0473 14.9966C10.6162 15.0508 8.18578 14.6886 5.74785 12.2507C3.30992 9.81275 2.94773 7.38238 3.00198 5.95128C3.03421 5.10117 3.52267 4.33214 4.15042 3.70439C5.19514 2.65968 6.86195 2.80004 7.52526 3.98859Z" stroke="white" stroke-width="1.125" stroke-linecap="round"/>
</svg>
