<svg width="18" height="18" viewBox="0 0 18 18" fill="none" xmlns="http://www.w3.org/2000/svg">
<path d="M2.25 9V9.5H15.75V9V8.5H2.25V9ZM9 15.75V15.25C5.54822 15.25 2.75 12.4518 2.75 9H2.25H1.75C1.75 13.0041 4.99594 16.25 9 16.25V15.75ZM2.25 9H2.75C2.75 5.54822 5.54822 2.75 9 2.75V2.25V1.75C4.99594 1.75 1.75 4.99594 1.75 9H2.25ZM9 2.25V2.75C12.4518 2.75 15.25 5.54822 15.25 9H15.75H16.25C16.25 4.99594 13.0041 1.75 9 1.75V2.25ZM15.75 9H15.25C15.25 12.4518 12.4518 15.25 9 15.25V15.75V16.25C13.0041 16.25 16.25 13.0041 16.25 9H15.75ZM9 15.75V15.25C8.74848 15.25 8.47122 15.1374 8.17696 14.8574C7.88012 14.5749 7.59006 14.1425 7.33559 13.5699C6.8272 12.426 6.5 10.8107 6.5 9H6H5.5C5.5 10.9172 5.84437 12.6769 6.42177 13.976C6.71019 14.625 7.06658 15.1811 7.48757 15.5817C7.91114 15.9848 8.4231 16.25 9 16.25V15.75ZM6 9H6.5C6.5 7.18925 6.8272 5.57397 7.33559 4.4301C7.59006 3.85753 7.88012 3.42513 8.17696 3.14265C8.47122 2.86261 8.74848 2.75 9 2.75V2.25V1.75C8.4231 1.75 7.91114 2.01515 7.48757 2.41825C7.06658 2.8189 6.71019 3.37502 6.42177 4.02396C5.84437 5.32311 5.5 7.08283 5.5 9H6ZM9 2.25V2.75C9.25152 2.75 9.52878 2.86261 9.82304 3.14265C10.1199 3.42513 10.4099 3.85753 10.6644 4.4301C11.1728 5.57397 11.5 7.18925 11.5 9H12H12.5C12.5 7.08283 12.1556 5.32311 11.5782 4.02396C11.2898 3.37502 10.9334 2.8189 10.5124 2.41825C10.0889 2.01515 9.5769 1.75 9 1.75V2.25ZM12 9H11.5C11.5 10.8107 11.1728 12.426 10.6644 13.5699C10.4099 14.1425 10.1199 14.5749 9.82304 14.8574C9.52878 15.1374 9.25152 15.25 9 15.25V15.75V16.25C9.5769 16.25 10.0889 15.9848 10.5124 15.5817C10.9334 15.1811 11.2898 14.625 11.5782 13.976C12.1556 12.6769 12.5 10.9172 12.5 9H12Z" fill="white"/>
</svg>
