<svg width="17" height="17" viewBox="0 0 17 17" fill="none" xmlns="http://www.w3.org/2000/svg">
<path d="M8.50008 6.19791C7.88953 6.19791 7.30399 6.44045 6.87226 6.87217C6.44054 7.3039 6.198 7.88944 6.198 8.49999C6.198 9.11054 6.44054 9.69608 6.87226 10.1278C7.30399 10.5595 7.88953 10.8021 8.50008 10.8021C9.11063 10.8021 9.69618 10.5595 10.1279 10.1278C10.5596 9.69608 10.8022 9.11054 10.8022 8.49999C10.8022 7.88944 10.5596 7.3039 10.1279 6.87217C9.69618 6.44045 9.11063 6.19791 8.50008 6.19791Z" fill="white"/>
<path fill-rule="evenodd" clip-rule="evenodd" d="M4.79533 2.18308C7.25751 1.91016 9.74231 1.91016 12.2045 2.18308C13.5496 2.33325 14.6341 3.39221 14.792 4.74229C15.084 7.23892 15.084 9.76108 14.792 12.2577C14.6341 13.6078 13.5496 14.6668 12.2052 14.8176C9.74279 15.0906 7.25775 15.0906 4.79533 14.8176C3.45021 14.6668 2.36575 13.6078 2.20779 12.2584C1.91576 9.76155 1.91576 7.23916 2.20779 4.74229C2.36575 3.39221 3.45021 2.33325 4.79533 2.18308ZM12.0416 4.25C11.8537 4.25 11.6736 4.32463 11.5407 4.45747C11.4079 4.59031 11.3332 4.77047 11.3332 4.95833C11.3332 5.1462 11.4079 5.32636 11.5407 5.4592C11.6736 5.59204 11.8537 5.66667 12.0416 5.66667C12.2294 5.66667 12.4096 5.59204 12.5424 5.4592C12.6753 5.32636 12.7499 5.1462 12.7499 4.95833C12.7499 4.77047 12.6753 4.59031 12.5424 4.45747C12.4096 4.32463 12.2294 4.25 12.0416 4.25ZM5.13533 8.5C5.13533 7.60766 5.48981 6.75186 6.12079 6.12088C6.75178 5.4899 7.60757 5.13542 8.49991 5.13542C9.39226 5.13542 10.2481 5.4899 10.879 6.12088C11.51 6.75186 11.8645 7.60766 11.8645 8.5C11.8645 9.39234 11.51 10.2481 10.879 10.8791C10.2481 11.5101 9.39226 11.8646 8.49991 11.8646C7.60757 11.8646 6.75178 11.5101 6.12079 10.8791C5.48981 10.2481 5.13533 9.39234 5.13533 8.5Z" fill="white"/>
</svg>
