<svg width="18" height="18" viewBox="0 0 18 18" fill="none" xmlns="http://www.w3.org/2000/svg">
<path d="M1.50195 9.00098C1.50195 6.17255 1.50195 4.75834 2.38063 3.87966C3.25931 3.00098 4.67353 3.00098 7.50195 3.00098H10.502C13.3304 3.00098 14.7446 3.00098 15.6233 3.87966C16.502 4.75834 16.502 6.17255 16.502 9.00098C16.502 11.8294 16.502 13.2436 15.6233 14.1223C14.7446 15.001 13.3304 15.001 10.502 15.001H7.50195C4.67353 15.001 3.25931 15.001 2.38063 14.1223C1.50195 13.2436 1.50195 11.8294 1.50195 9.00098Z" stroke="white" stroke-width="1.125"/>
<path d="M4.49902 5.99805L6.1182 7.34736C7.49567 8.49525 8.18441 9.0692 8.99902 9.0692C9.81364 9.0692 10.5024 8.49525 11.8799 7.34736L13.499 5.99805" stroke="white" stroke-width="1.125" stroke-linecap="round"/>
</svg>
